<svg id="elHcmo1G9LZ1" xmlns="http://www.w3.org/2000/svg" xmlns:xlink="http://www.w3.org/1999/xlink" viewBox="0 0 755 443" shape-rendering="geometricPrecision" text-rendering="geometricPrecision">
<style><![CDATA[
#elHcmo1G9LZ5_tr {animation: elHcmo1G9LZ5_tr__tr 3000ms linear infinite normal forwards}@keyframes elHcmo1G9LZ5_tr__tr { 0% {transform: translate(534.620529px,118.80193px) rotate(0deg)} 100% {transform: translate(534.620529px,118.80193px) rotate(360deg)}} #elHcmo1G9LZ8_tr {animation: elHcmo1G9LZ8_tr__tr 3000ms linear infinite normal forwards}@keyframes elHcmo1G9LZ8_tr__tr { 0% {transform: translate(268.020119px,91.592955px) rotate(0deg)} 1% {transform: translate(268.020119px,91.592955px) rotate(0deg)} 100% {transform: translate(268.020119px,91.592955px) rotate(360deg)}} #elHcmo1G9LZ15_tr {animation: elHcmo1G9LZ15_tr__tr 3000ms linear infinite normal forwards}@keyframes elHcmo1G9LZ15_tr__tr { 0% {transform: translate(158.3795px,180.556061px) rotate(0deg)} 50% {transform: translate(158.3795px,180.556061px) rotate(-2.295467deg)} 100% {transform: translate(158.3795px,180.556061px) rotate(0deg)}} #elHcmo1G9LZ27_tr {animation: elHcmo1G9LZ27_tr__tr 3000ms linear infinite normal forwards}@keyframes elHcmo1G9LZ27_tr__tr { 0% {transform: translate(151.385px,154.357956px) rotate(0deg)} 50% {transform: translate(151.385px,154.357956px) rotate(11.832931deg)} 100% {transform: translate(151.385px,154.357956px) rotate(0deg)}} #elHcmo1G9LZ32_tr {animation: elHcmo1G9LZ32_tr__tr 3000ms linear infinite normal forwards}@keyframes elHcmo1G9LZ32_tr__tr { 0% {transform: translate(147.688562px,184.615418px) rotate(0deg)} 50% {transform: translate(147.688562px,184.615418px) rotate(-3.137252deg)} 100% {transform: translate(147.688562px,184.615418px) rotate(0deg)}} #elHcmo1G9LZ38_tr {animation: elHcmo1G9LZ38_tr__tr 3000ms linear infinite normal forwards}@keyframes elHcmo1G9LZ38_tr__tr { 0% {transform: translate(595.490998px,137.842532px) rotate(0deg)} 33.333333% {transform: translate(595.490998px,137.842532px) rotate(-2.156928deg)} 66.666667% {transform: translate(595.490998px,137.842532px) rotate(3.863165deg)} 100% {transform: translate(595.490998px,137.842532px) rotate(0deg)}} #elHcmo1G9LZ40_tr {animation: elHcmo1G9LZ40_tr__tr 3000ms linear infinite normal forwards}@keyframes elHcmo1G9LZ40_tr__tr { 0% {transform: translate(575.289001px,193.542px) rotate(0deg)} 50% {transform: translate(575.289001px,193.542px) rotate(-2.631256deg)} 100% {transform: translate(575.289001px,193.542px) rotate(0deg)}} #elHcmo1G9LZ60_tr {animation: elHcmo1G9LZ60_tr__tr 3000ms linear infinite normal forwards}@keyframes elHcmo1G9LZ60_tr__tr { 0% {transform: translate(611.809px,191.553px) rotate(0deg)} 0.666667% {transform: translate(611.809px,191.553px) rotate(0deg)} 50% {transform: translate(611.809px,191.553px) rotate(1.868644deg)} 100% {transform: translate(611.809px,191.553px) rotate(0deg)}}
]]></style>
<defs><linearGradient id="elHcmo1G9LZ4-fill" x1="379.723" y1="0.004395" x2="379.723" y2="441.637" spreadMethod="pad" gradientUnits="userSpaceOnUse" gradientTransform="translate(0 0)"><stop id="elHcmo1G9LZ4-fill-0" offset="0%" stop-color="#303660"/><stop id="elHcmo1G9LZ4-fill-1" offset="100%" stop-color="rgba(48,54,96,0)"/></linearGradient></defs><g clip-path="url(#elHcmo1G9LZ140)"><g><path d="M728.355,439.81c-13.942,0-42.515,1.254-42.817,1.827h-72.036l-21.082-.055h-188.785l-55.133-.058h-145.348l-60.705-.056h-109.7813c0,0-.1817-.459-.5451-1.375l-.0606-.114c0,0-.0606-.114-.0606-.172-.2423-.459-91.3532-182.622,59.0779-272.421C149.939,132.251,118.922,62.0906,206.038,19.5912c112.32-54.797,142.933,24.8226,275.75,5.5719C597.139,8.44487,649.699,61.6918,641.603,140.878c-3.803,37.197,22.304,65.709,48.059,70.821c71.048,14.109,68.504,96.747,62.694,157.465-3.582,37.431-23.505,70.649-23.998,70.649l-.003-.003Z" fill="url(#elHcmo1G9LZ4-fill)"/><g id="elHcmo1G9LZ5_tr" transform="translate(534.620529,118.80193) rotate(0)"><g transform="translate(-534.620529,-118.801929)" opacity="0.5"><path d="M563.932,125.005l-5.254-3.174c-.435-.269-.683-.758-.643-1.267.053-.653.079-1.31.079-1.973c0-1.236-.087-2.443-.274-3.618-.087-.549.161-1.093.637-1.375l5.489-3.322c.59-.349.811-1.102.503-1.725l-2.584-5.276c-.295-.597-.985-.871-1.606-.652l-5.549,2.02c-.535.209-1.146.026-1.507-.444-1.525-1.98-3.368-3.713-5.449-5.1279-.503-.3433-.708-1.0009-.503-1.5712l1.233-3.3828c.226-.6443-.053-1.3705-.669-1.6768l-5.228-2.5641c-.108-.0528-.213-.0951-.329-.1136-.535-.1135-1.104.1268-1.393.618l-2.371,3.9319-.576.9586c-1.078-.1558-2.189-.235-3.308-.235-1.507,0-2.987.14-4.404.4093-.542.1003-1.09-.1347-1.372-.61l-2.665-4.4364c-.369-.6047-1.133-.8318-1.759-.5175l-4.025,1.9805-1.151.5704c-.629.3089-.929,1.0457-.69,1.7059l1.681,4.6502c.2.5361.039,1.1408-.403,1.4895-1.306,1.067-2.497,2.268-3.542,3.583-.101.109-.182.214-.269.33-.026.04-.061.074-.095.109-.369.396-.937.522-1.446.335l-5.483-1.994c-.061-.026-.126-.039-.187-.053-.59-.121-1.206.175-1.48.727l-2.557,5.22c-.309.631-.087,1.389.516,1.759l5.483,3.309c.469.274.709.813.622,1.349-.182,1.181-.274,2.395-.274,3.639c0,.658.026,1.31.079,1.954.039.523-.214,1.027-.664,1.297l-5.275,3.195c-.582.349-.803,1.093-.503,1.711l2.562,5.216c.308.631,1.038.932,1.707.691l4.39-1.597c.59-.214,1.238,0,1.586.517c1.345,2.047,3.005,3.866,4.906,5.403.456.357.63.975.429,1.524l-1.793,4.954c-.242.665.061,1.402.69,1.719l5.188,2.556c.622.309,1.38.082,1.728-.51l.139-.227l2.753-4.571c.295-.488.85-.739,1.411-.636h.008c1.346.24,2.731.37,4.151.37.756,0,1.498-.04,2.241-.109.516-.052,1.011.196,1.28.637l2.705,4.505c.368.618,1.151.845,1.788.531l5.18-2.557c.148-.074.274-.174.382-.282.343-.362.469-.906.295-1.397l-1.351-3.713c-.16-.457-.066-.966.235-1.328.079-.095.173-.182.281-.256c2.61-1.746,4.841-3.993,6.574-6.618.287-.449.824-.665,1.338-.578.074.013.147.034.221.061l4.438,1.618c.642.235,1.359-.053,1.667-.67l.06-.122l2.497-5.089c.308-.644.079-1.41-.529-1.779l.008-.006Zm-41.483-10.034c.256-.906.603-1.825,1.059-2.747.869-1.75,3.018-3.918,4.772-4.785.187-.095.374-.182.561-.269c11.472-5.168,22.539,6.129,16.976,17.64-.729,1.502-2.343,3.269-3.916,4.362-.368.249-.729.47-1.072.631-1.601.779-3.192,1.236-4.746,1.411-8.849.987-16.131-7.17-13.634-16.243Z" fill="#a6acd3"/></g></g><g><g id="elHcmo1G9LZ8_tr" transform="translate(268.020119,91.592955) rotate(0)"><path d="M338.131,98.3499l-13.039-6.063c-1.08-.5149-1.781-1.595-1.817-2.7912-.04-1.529-.143-3.0685-.311-4.6159-.311-2.8758-.819-5.6696-1.551-8.3578-.343-1.2596.097-2.5879,1.135-3.3669l11.949-9.1289c1.285-.9612,1.609-2.7701.734-4.1459l-7.348-11.6349c-.837-1.3177-2.512-1.7824-3.905-1.1091L311.56,53.2469c-1.196.6206-2.66.3512-3.619-.6496-4.053-4.2251-8.777-7.7927-13.984-10.5654-1.256-.6708-1.904-2.1496-1.565-3.5306l2.018-8.1915c.369-1.558-.469-3.1767-1.981-3.7392L279.606,21.923c-.263-.0977-.521-.1637-.793-.1822-1.277-.1294-2.541.5757-3.086,1.7904l-4.53,9.76-1.098,2.3819c-2.55-.0872-5.157.0079-7.762.2905-3.508.3802-6.918,1.0853-10.155,2.0703-1.238.3723-2.576-.037-3.35-1.0748l-7.322-9.6597c-1.008-1.315-2.844-1.653-4.229-.7578l-8.873,5.6299-2.539,1.6214c-1.388.8794-1.904,2.675-1.177,4.1459l5.086,10.4096c.603,1.1989.381,2.6486-.561,3.5729-2.771,2.8149-5.244,5.9151-7.346,9.245-.205.2747-.366.5467-.54.8345-.052.1003-.121.1875-.192.2746-.758,1.0167-2.051,1.4577-3.284,1.1487l-13.271-3.2559c-.147-.0476-.305-.0608-.45-.0766-1.404-.1321-2.763.7103-3.263,2.0624l-4.641,12.81c-.558,1.5474.148,3.2586,1.644,3.9663l13.602,6.3191c1.162.5229,1.857,1.7112,1.791,2.984-.124,2.7965-.037,5.6511.277,8.5427.166,1.5316.392,3.0421.679,4.5289.227,1.209-.239,2.445-1.217,3.185l-11.482,8.777c-1.27.961-1.596,2.752-.738,4.114l7.285,11.498c.877,1.392,2.652,1.909,4.151,1.178l9.826-4.833c1.317-.649,2.884-.314,3.824.803c3.65,4.428,7.975,8.244,12.789,11.342c1.151.713,1.712,2.107,1.382,3.441l-2.931,11.991c-.395,1.608.493,3.251,2.039,3.826l12.728,4.643c1.528.562,3.232-.161,3.895-1.627l.272-.568l5.256-11.341c.564-1.215,1.794-1.936,3.129-1.844h.016c3.194.222,6.455.167,9.76-.192c1.762-.193,3.482-.473,5.196-.819c1.188-.256,2.402.198,3.14,1.162l7.432,9.805c1.014,1.344,2.894,1.679,4.295.781l11.425-7.267c.324-.208.595-.475.816-.752.704-.93.864-2.229.335-3.328l-4.085-8.302c-.49-1.022-.4-2.234.211-3.156.163-.24.361-.467.59-.665c5.641-4.727,10.266-10.529,13.645-17.08.558-1.12,1.751-1.756,2.973-1.685.174.013.35.04.529.085l10.746,2.643c1.556.386,3.152-.47,3.713-1.986l.111-.296l4.535-12.482c.556-1.579-.169-3.3036-1.68-4.0087l-.003.0026ZM238.982,85.4818c.364-2.1759.943-4.4046,1.773-6.6624c1.585-4.3017,6.044-9.8947,9.913-12.3558.413-.2667.827-.5176,1.243-.7685c25.422-14.9437,54.039,8.5664,43.982,36.7879-1.323,3.686-4.636,8.207-8.023,11.154-.795.671-1.58,1.278-2.336,1.74-3.531,2.218-7.126,3.684-10.7,4.484-20.363,4.539-39.381-12.612-35.852-34.3792Z" transform="translate(-268.020119,-91.592955)" fill="#a6acd3"/></g></g><path d="M552.088,393.838c-4.184,1.592-31.904,4.51-30.761,8.03c1.146,3.52,20.514,7.072,30.559,2.594c0,0-8.149,29.831-23.414,30.18-15.267.346-21.042-8.471-30.473-8.083-9.432.385-15.966,3.718-10.996,5.688s20.587-1.6,28.894,3.94c1.219.813,2.402,1.576,3.487,2.302.653.439,1.274.861,1.846,1.273h-55.533c0-.451,0-.876-.011-1.273-.05-2.342-.247-3.686-.247-3.686s-28.741-11.944-18.583-33.978c0,0,8.578-13.805,18.981-18.326c0,0-2.142,31.316,3.694,31.353c5.839.042-.123-35.069-.123-35.069s26.781-17.058,38.053-17.296c0,0-14.09,32-8.422,30.598c5.665-1.403,21.867-34.018,21.867-34.018s28.478-8.854,35.191,7.891c6.71,16.747.182,26.29-4.006,27.883l-.003-.003Z" opacity="0.6" fill="#a6acd3"/><g transform="translate(.000001 0.000001)"><path d="M202.846,417.428c-12.273-12.464,6.597-34.461,6.597-34.461s35.223-1.854,38.657-6.37c3.434-4.515-30.421-4.309-30.421-4.309c4.569-9.969,30.068-27.281,30.068-27.281s28.867,18.889,31.087,13.665c2.221-5.226-26.41-15.419-26.41-15.419c8.036-7.536,23.608-9.857,23.608-9.857c23.49-.552,22.984,29.721,22.984,29.721s10.145,6.329,25.697,6.85c0,0,3.023-.167,7.59.536l-1.446,2.49c-.785-.185-1.557-.338-2.32-.449-.006,0-.008-.003-.014,0-.01,0-.021-.003-.034-.005-.482-.053-1.172-.127-2.012-.209h-.003c0,0,0,0-.005,0-1.928-.106-3.321-.232-4.303-.37-.003,0-.005,0-.008,0-5.984-.441-13.964-.705-16.51.742c0,0-.227-.501-.83-1.199.263.383.54.779.83,1.199c6.631,9.578-4.222,31.771-13.545,42.225-9.321,10.452-9.658,3.33-11.364-6.227-1.71-9.556,7.498-22.116,7.669-27.312.174-5.197-5.31-.655-9.3,7.613-3.987,8.268,1.607,16.834-4.603,30.325-6.21,13.494-35.847,9.232-35.847,9.232c7.859-7.233,12.191-25.897,9.51-28.276-2.681-2.382-15.989,21.234-19.02,24.355s-14.029,5.26-26.302-7.204v-.005Z" fill="#a6acd3"/></g><g transform="translate(.000005 0.000007)"><path d="M206.875,270.745c2.924-12.081,23.211-8.87,23.211-8.87s14.263,20.629,18.267,21.023c4,.393-8.763-20.025-8.763-20.025c7.706-.956,27.648,8.017,27.648,8.017s-.597,24.525,3.377,23.92c3.974-.608-.577-21.744-.577-21.744c7.537,2.05,14.748,10.613,14.748,10.613c9.102,14.014-9.315,25.008-9.315,25.008s-.024,8.503,5.468,18.112c0,0,1.23,1.769,2.509,4.796l-2.038.055c-.182-.544-.379-1.069-.595-1.571c0-.003,0-.005-.005-.008-.003-.008-.006-.013-.011-.021-.147-.312-.361-.755-.624-1.297c0,0,0-.002,0-.005-.656-1.207-1.101-2.097-1.383-2.744c0,0,0-.002,0-.005-1.967-3.787-4.788-8.717-6.61-9.718c0,0,.216-.324.411-.948-.132.304-.269.618-.411.948-3.292,7.592-20.706,9.306-30.479,7.563-9.774-1.74-5.61-4.602-.493-9.203c5.117-4.6,16.115-3.718,19.307-5.553c3.195-1.835-1.588-3.459-8.056-2.786-6.468.674-9.536,7.257-19.979,8.535-10.442,1.278-18.941-18.253-18.941-18.253c7.287,2.057,20.142-2.286,20.577-4.798.432-2.511-18.754-1.751-21.765-2.421-3.01-.671-8.404-6.528-5.48-18.612l.002-.008Z" fill="#a6acd3"/></g><path d="M546.745,309.355c12.28-10.444-3.266-32.182-3.266-32.182s-32.194-4.574-34.983-9s28.286-1.479,28.286-1.479c-3.387-9.525-25.399-27.5-25.399-27.5s-28.038,14.994-29.655,10.016c-1.617-4.977,25.501-12.007,25.501-12.007-6.768-7.576-20.879-10.975-20.879-10.975-21.525-2.421-23.513,25.42-23.513,25.42s-9.829,4.985-24.151,4.196c0,0-2.762-.399-7.013-.127l1.124,2.403c.735-.106,1.459-.182,2.168-.224.005,0,.008,0,.013,0c.011,0,.021,0,.032,0c.447-.011,1.085-.022,1.867-.029h.003c0,0,0,0,.002,0c1.778.058,3.068.058,3.982.01.003,0,.006,0,.008,0c5.531.082,12.881.491,15.101,2.025c0,0,.248-.441.859-1.032-.274.33-.558.673-.859,1.032-6.865,8.255,1.302,29.518,9.015,39.878c7.714,10.359,8.597,3.844,10.941-4.793c2.344-8.635-5.094-20.92-4.83-25.705.263-4.787,4.93-.169,7.922,7.748c2.991,7.917-2.84,15.327,1.769,28.224s32.17,11.4,32.17,11.4c-6.629-7.281-9.096-24.773-6.442-26.74c2.655-1.967,12.961,20.801,15.491,23.914c2.531,3.113,12.458,5.973,24.738-4.473h-.002Z" opacity="0.5" fill="#a6acd3"/><g id="elHcmo1G9LZ15_tr" transform="translate(158.3795,180.556061) rotate(0)"><g transform="translate(-158.379499,-180.55606)"><path d="M241.392,192.776c-1.338,3.609-3.661,7.8-6.094,8.841-2.76,1.18-3.914,2.849-3.914,2.849l-2.23-1.297-2.663-1.552c0,0,.063-.296.192-.779.129-.481.329-1.152.598-1.894c0,0,.816-1.053.316-2.376-.5-1.321-.4-3.365.453-4.611.853-1.244,1.678-4.31,2.194-4.22c1.246.214-.611,4.431-.079,5.213.482.708,1.085.465,1.196.412.007-.005.013-.008.021-.011c3.494-1.539,7.732-9.844,9.607-8.725.701.42.972,6.613.4,8.15h.003Z" fill="#ffb27d"/><path d="M229.304,197.804l4.377,3.084c.308.219.74.143.956-.166l11.211-15.998c.219-.309.142-.742-.166-.958l-4.377-3.085c-.308-.219-.74-.142-.956.167l-11.211,15.997c-.219.309-.143.742.166.959Z" fill="#2b478b"/><path d="M233.312,200.627l2.565,1.809c.235.166.564.108.73-.127l11.401-16.267c.166-.235.108-.565-.127-.731l-2.565-1.809c-.234-.167-.563-.108-.729.127l-11.401,16.266c-.166.235-.108.565.126.732Z" fill="#233862"/><path d="M166.515,174.848c0,0,22.27,38.948,30.35,46.115l29.626-22.148c0,0,4.298,1.323,6.181,5.649c0,0-17.99,36.75-35.704,38.308s-42.573-44.049-42.573-44.049l12.12-23.877v.002Z" fill="#233862"/></g></g><path d="M116.115,439.757h-12.868c-1.62-.882-3.063-2.902-3.5187-5.912-.6294-4.157-5.2752-6.422-6.2812-9.824-1.0034-3.398,4.1453-8.183,4.1453-8.183l.8612-1.114.8955-1.157l8.5409,2.017c0,0,.211,2.039.34,4.637.092,1.875.142,4.041.037,5.939-.251,4.532,1.264,9.417,5.28,10.299c2.971.652,2.836,2.419,2.565,3.296l.003.002Z" fill="#233862"/><path d="M190.794,439.757h-29.428c-1.414-1.732-.893-8.122-.679-10.209.044-.419.073-.665.073-.665s10.05-8.059,11.43-1.888c.043.193.093.383.151.57c1.738,5.773,9.539,8.395,14.042,9.126c2.929.476,4.011,2.002,4.411,3.066Z" fill="#233862"/><path d="M185.187,275.054c0,0-1.524,19.09-3.318,42.035-2.439,31.171-5.37,69.455-5.66,76.709-.5,12.596-2.512,32.742-2.512,32.742s-4.77,4.785-14.317,2.77c0,0-8.506-28.759-10.937-59.188-.037-.499-.077-1.001-.113-1.503-2.26-30.978-5.776-96.205-5.776-96.205l42.633,2.643v-.003Z" fill="#f99746"/><path d="M185.187,275.054c0,0-1.524,19.09-3.318,42.035l-33.426,53.03c-.037-.499-.077-1-.113-1.502-2.26-30.978-5.776-96.206-5.776-96.206l42.633,2.643Z" fill="#ed7d2b"/><path d="M178.219,277.323c0,0-27.503,69.131-45.589,101.619-18.085,32.488-23.737,41.554-23.737,41.554s-10.3603-4.156-11.3032-6.99c0,0,6.9162-62.719,19.0252-78.009c6.843-8.64,14.883-34.566,15.26-43.632.376-9.065,2.449-27.011,2.449-27.011l43.892,12.466.003.003Z" fill="#f99746"/><path d="M171.374,176.543c-10.748,3.402-29.344-5.777-29.344-5.777s9.91-7.458,9.391-22.961l8.31,6.715l5.643,4.56c0,0-.023,2.689-.64,7.402-.163,1.239-.366,2.623-.621,4.13c4.614,2.541,7.261,5.931,7.261,5.931Z" fill="#ffb27d"/><path d="M165.374,159.078c0,0-.023,2.688-.64,7.402-6.254-1.075-13.349-11.213-13.349-11.213c3.184-.921,5.973-1.088,8.346-.75l5.643,4.561Z" fill="#ed975d"/><g id="elHcmo1G9LZ27_tr" transform="translate(151.385,154.357956) rotate(0)"><g transform="translate(-151.384997,-154.357956)"><path d="M168.661,158.824c0,0-17.753,2.958-19.417-8.157-1.668-11.114-5.081-18.215,6.183-20.573s14.109,1.55,15.563,5.123c1.456,3.573,2.246,22.551-2.329,23.607Z" transform="translate(.209372 0)" fill="#ffb27d"/><path d="M149.228,149.598c0,0,1.822-.307,1.527-2.82-.295-2.517-.289-5.805,1.749-5.192c2.041.613,2.141,2.25,2.981,1.294.838-.956.854-4.986,6.924-5.266c6.071-.28,8.538,1.838,11.359.594c2.823-1.243,2.971-5.529,2.971-5.529s-.804,1.529-2.015,2.017c0,0,4.709-6.459-.743-10.887-5.451-4.429-11.011-1.529-14.169-1.339-6.953.422-11.443.84-13.713,5.421-2.27,4.582-1.333,17.299,3.126,21.709l.003-.002Z" fill="#2b478b"/></g></g><path d="M186.375,276.644c-.324.27-.698.431-1.13.431-4.034-.056-15.804,2.192-25.762,1.167-8.396-.808-15.825-3.301-23.805-6.89-1.059-.475-3.498-1.782-3.445-2.968.037-1.299.163-3.187.326-5.561.564-8.257,1.549-22.464.59-38.85-.174-3.053-.263-6.079-.274-9.057-.081-22.211,4.312-41.747,13.137-48.357.753-.541,5.383,1.727,9.634,3.829c3.929,1.944,7.859,2.158,11.569,1.405l3.714,3.29c4.522,4.21,9.473,9.929,11.625,18.617c1.83,7.391,2.907,20.724,3.497,34.538.269,6.261.485,12.575.54,18.564v.214c.053.594.053,1.244.053,1.835.216,15.379,0,27.574-.269,27.791v.002Z" fill="#2b478b"/><path d="M132.557,262.825c.563-8.257,1.548-22.464.59-38.85-.174-3.052-.264-6.078-.274-9.057c3.676-8.944,6.681-15.43,6.681-15.43h9.268c0,0,6.795,46.532-16.265,63.337Z" fill="#233862"/><g id="elHcmo1G9LZ32_tr" transform="translate(147.688562,184.615418) rotate(0)"><g transform="translate(-147.688561,-184.615417)"><path d="M85.0853,315.563l39.5257,5.648c5.144.735,9.953-2.883,10.685-8.04l2.441-17.176c.732-5.157-2.876-9.979-8.019-10.713l-39.5261-5.648c-5.1435-.734-9.9525,2.883-10.6847,8.041L77.0658,304.85c-.7321,5.157,2.876,9.979,8.0195,10.713Z" fill="#233862"/><path d="M131.948,290.4c-1.111-2.789-3.508-4.991-6.547-5.739c0,0-.005,0-.008,0-.297-.071-.6-.132-.911-.176l-7.869-1.123.526-3.707c.119-.827-.092-1.653-.595-2.324s-1.235-1.107-2.059-1.223l-2.055-.293-8.264-1.18-1.491-.212c-1.706-.242-3.297.951-3.5366,2.665l-.5267,3.707-13.5844-1.94c-5.1619-.737-9.9894,2.894-10.7268,8.07l-2.4677,17.373c-.7348,5.175,2.8864,10.016,8.0484,10.753l39.4548,5.637c.695.101,1.385.119,2.057.066h.008c1.079-.081,2.117-.351,3.078-.779c2.9-1.283,5.102-3.995,5.584-7.359l2.47-17.373c.24-1.696.013-3.349-.579-4.838l-.006-.005Zm-30.874-13.04c.074-.518.479-.911.972-.99.113-.019.229-.021.35-.006l1.754.251l6.505.932l3.545.507c.638.09,1.083.687.993,1.323l-.527,3.708-14.119-2.02.527-3.705Z" fill="#2b478b"/><path d="M115.143,264.423c0,0-2.075,2.773-2.157,3.879-.558,7.508,2.863,8.546-5.994,12.718c0,0-3.782,1.447-3.845-1.497-.063-2.945,2.626-2.992,2.133-7.114-.566-4.754-.511-4.798,2.602-7.281l2.06-3.414l5.204,2.709h-.003Z" fill="#ffb27d"/><path d="M109.863,266.549c3.336.652,6.955.388,6.955.388s9.908-30.687,11.182-33.492c1.275-2.804,29.429-35.982,29.429-35.982l-11.728-29.428c0,0-30.45,51-33.542,58.167-5.109,11.841-6.882,38.393-6.882,38.393s1.968,1.444,4.588,1.956l-.002-.002Z" fill="#2b478b"/></g></g><path d="M111.867,267.727c0,0,1.999,2.088,2.125,2.957.406,2.791,1.335,3.996.869,4.299-.969.631-2.249-1.434-2.86-3.287-.611-1.854-.132-3.969-.132-3.969h-.002Z" fill="#ffb27d"/><g id="elHcmo1G9LZ38_tr" transform="translate(595.490998,137.842532) rotate(0)"><g transform="translate(-595.490991,-137.842531)"><path d="M597.079,131.303c0,0,5.301,0,10.787,3.512c4.311,2.76,14.069,16.724,17.282,25.032c3.213,8.307-3.484,11.904,1.301,16.673c4.73,4.711,11.191,18.001.227,24.529-6.195,3.687-17.216-7.713-24.296-9.321-7.079-1.611-26.025,13.023-31.008,8.423s-9.974-12.506,4.998-22.514c3.867-2.585-13.165-4.201-5.875-22.729c5.025-12.77,13.961-23.964,26.584-23.602v-.003Z" fill="#233862"/></g></g><g id="elHcmo1G9LZ40_tr" transform="translate(575.289001,193.542) rotate(0)"><g transform="translate(-575.289001,-193.541996)"><path d="M543.221,211.499c0-.188,2.728-5.847,1.862-6.28-.869-.436-2.423-.37-2.605.623-.182.99.745,5.659.745,5.659l-.002-.002Z" fill="#ffb27d"/><path d="M564.113,243.781c-12.723-4.701-24.977-26.531-24.977-26.531l4.014-2.818c3.342,4.901,18.377,14.315,18.377,14.315.343-4.13.843-7.879,1.457-11.273c4.174-23.071,13.724-29.908,16.286-31.358.414-.235.648-.327.648-.327s-.008.169-.029.491c-.037.694-.119,2.094-.253,4.011-.993,14.286-4.891,57.422-15.523,53.492v-.002Z" fill="#ffb27d"/><path d="M543.147,214.432c0-.554.464-8.582-.961-10.269-1.425-1.688-4.335-4.085-5.252-4.011-.913.074-4.495,4.843-3.418,8.497c1.077,3.655,5.617,8.601,5.617,8.601l4.014-2.818Z" fill="#ffb27d"/><path d="M549.684,204.611l-8.299,2.493c-.274.082-.566-.074-.648-.351l-4.743-15.863c-.082-.277.074-.567.35-.649l8.296-2.493c.277-.082.567.074.648.351l4.741,15.863c.081.277-.074.567-.35.649h.005Z" fill="#f1a34f"/><path d="M547.527,205.258L540,207.519c-.487.148-1.003-.132-1.148-.621l-4.512-15.091c-.147-.489.132-1.007.619-1.152l7.527-2.263c.487-.148,1.003.132,1.148.621l4.512,15.091c.147.489-.132,1.006-.619,1.152v.002Z" fill="#d86713"/><path d="M574.782,220.577c-.647-.037-1.274-.135-1.883-.285-.137-.034-.276-.071-.413-.111-1.628-.467-3.105-1.291-4.364-2.197-2.736-1.962-5.768-5.329-5.768-5.329c5.336-23.819,15.515-27.133,15.515-27.133s3.247,35.391-3.084,35.053l-.003.002Z" fill="#808fff"/><path d="M536.081,200.767c0,0,3.455-5.332,4.298-5.033c1.206.422-3.131,7.188-3.131,7.188s3.215-5.055,3.716-4.674c1.143.866-.677,4.043-2.484,6.477c0,0,3.232-2.968,3.337-2.434.369,1.872-3.547,6.409-3.547,6.409l-2.189-5.015v-2.918Z" transform="translate(0 0.000001)" fill="#ffb27d"/><path d="M533.49,205.715c.165-.652,1.011-13.38,1.372-12.173.36,1.206,1.219,7.882,1.219,7.882l-2.591,4.291Z" fill="#ffb27d"/><path d="M572.9,220.292c-.137-.034-.277-.071-.414-.111-1.628-.467-3.105-1.291-4.364-2.197.327-.729.848-1.621,1.625-2.348c1.609-1.505,2.944-7.636,3.5-7.135.553.502-.347,11.788-.347,11.788v.003Z" fill="#5a68af"/></g></g><path d="M583.963,141.169c0,0,13.358-13.491,21.831-1.152c0,0,5.233-1.526,7.519,9.264c2.333,11.006-1.233,17.735-5.007,15.667-2.42-1.325-4.253,2.921-4.253,2.921l-20.09-26.7Z" fill="#233862"/><path d="M625.609,267.338c-6.286-14.135-9.294-18.131-9.397-22.578-.084-3.517,1.646-7.312,5.007-16.615.79-2.192,1.338-4.447,1.672-6.726c2.658-17.938-7.732-37.566-14.161-38.886-2.778-.674-4.777-6.716-4.74-17.157l-.806.158-13.54,2.689c0,0,.308,4.272.316,8.297.008,3.353.566,6.884-.951,6.932-.974.089-1.548.147-1.548.147s-11.288,15.72-12.239,30.339s9.042,20.973-.076,50.187c-9.307,29.84,53.934,11.022,50.463,3.211v.002Z" fill="#ffb27d"/><path d="M589.641,168.223c0,0,.309,4.273.319,8.297c7.577-.214,11.58-7.143,13.221-10.985l-13.54,2.688Z" fill="#e8945b"/><path d="M604.579,164.056c0,0,3.972-6.29,4.923-11.67.679-3.839-1.27-18.072-15.536-16.023c0,0-4.143.409-8.038,3.047-3.097,2.097-7.566,6.626-2.568,19.045l1.299,4.196l19.92,1.405Z" fill="#233862"/><g transform="translate(.000009 0)"><path d="M587.113,172.033c0,0,17.925.296,17.938-10.898.013-11.197,2.333-18.696-9.11-19.359s-13.674,3.607-14.582,7.344c-.912,3.736,1.093,22.551,5.754,22.916v-.003Z" fill="#ffb27d"/></g><g transform="translate(.000009 0.00001)"><path d="M587.777,141.502c0,0,4.909,13.135,12.441,15.075c7.532,1.941,10.798-.081,10.798-.081s-5.778-4.603-6.976-12.636c0,0-12.56-8.611-16.263-2.361v.003Z" fill="#233862"/></g><path d="M588.994,142.566c0,0-2.468,1.476-4.538,4.64-1.636,2.498-3.266,4.716-3.024,9.662c0,0-3.697-8.928.459-13.977c4.406-5.356,7.103-.325,7.103-.325Z" fill="#233862"/><path d="M609.736,402.973c-4.508,17.988-11.298,31.778-11.298,31.778l-5.91-.409c0,0,2.9-13.827,2.731-32.51-.116-13.061-1.727-28.498-6.876-43.236-17.688-50.649-14.828-87.51-14.828-87.51l33.261,3.9l1.548.182c.14,15.316.532,36.112.877,52.373.306,14.624.574,25.581.574,25.581c6.395,13.808,4.072,33.302-.079,49.856v-.005Z" fill="#163560"/><g id="elHcmo1G9LZ60_tr" transform="translate(611.809,191.553) rotate(0)"><g transform="translate(-611.808998,-191.552997)"><path d="M648.922,282.351l-5.38,1.618c0,0-17.751-29.533-19.366-37.218-.526-2.5-1.817-7.507-3.323-13.116-3.119-11.616-7.14-25.828-7.14-25.828l-1.325-5.755-4.519-19.62c0,0,8.651.887,13.713,3.008c1.675.7,2.955,1.537,3.4,2.519c3.719,8.197,7.43,28.884,10.04,43.64c1.454,8.226,2.562,14.609,3.142,15.961c1.614,3.773,6.544,24.542,10.758,34.788v.003Z" fill="#ffb27d"/><path d="M648.922,282.351c0,0,6.492,4.328,7.485,6.153s3.308,8.54,3.308,8.54-1.654.248-3.308-2.654-7.111-2.654-8.931-4.228c-1.819-1.576-3.934-6.192-3.934-6.192l5.38-1.619Z" fill="#ffb27d"/><path d="M644.245,285.398c0,0,1.08,5.097,2.402,6.589s3.142,3.979,3.887,3.317c.745-.663-.827-6.219-.827-6.219l-5.462-3.687Z" fill="#ffb27d"/><path d="M655.496,289.084c.166.249,5.87,6.33,5.87,6.33s-2.067.94-2.647,0c-.579-.94-3.226-6.33-3.226-6.33h.003Z" fill="#ffb27d"/></g></g><path d="M628.82,400.099c-1.912,20.466-10.335,33.698-10.335,33.698l-2.823,2.06c0,0-2.673-14.418-4.564-31.572-1.802-16.304-4.272-33.558-7.066-38.824-11.093-20.885-14.433-99.726-14.433-99.726l33.724-1.676c3.392,5.717,4.87,15.094,5.22,25.754.888,26.906-5.42,61.993-6.363,67.069c0,.002,0,.005-.002.013-.074.393.039.779.221,1.133c6.708,13.317,7.679,28.553,6.421,42.071Z" fill="#1c468a"/><path d="M629.836,277.542c.058,1.141-.003,2.052-.208,2.701-.719,2.263-3.181,3.296-9.139,2.678-3.642-.38-5.264-6.499-5.989-11.719-2.186,7.468-5.248,11.658-9.207,12.54-5.775,1.289-34.909,4.841-36.816-9.047-2.096-15.273,4.183-42.317,4.528-56.896-.856-5.171-1.149-9.657-1.056-13.512.242-10.386,3.581-16.423,5.917-18.765c4.13-1.577,10.682-2.047,10.656-2.007-.492.884-2.162,5.999-1.886,8.611.862,8.11,9.205,7.236,16.542,2.329c5.42-3.623,8.486-11.518,8.486-11.518s10.824.884,13.363,5.041c4.854,7.953,8.644,29.089,11.68,43.954-7.361,4.067-13.795,2.857-15.788,2.318c2.609,17.117,8.525,35.494,8.914,43.292h.003Z" fill="#808fff"/><path d="M601.843,439.721h-3.774c-1.264-.201-2.196-.565-3.495-.737-1.97-.259-2.876.549-3.055.737-.023.023-.034.037-.034.037h-16.031c-.403-.579-.016-1.915.363-2.9.256-.668.812-1.175,1.502-1.376c1.698-.493,5.051-.932,8.119-3.718c1.728-1.563,8.338-5.751,8.338-5.751l.035-.008c.144,0,.837.216,3.842,2.762c1.554,1.312,4.203-1.856,4.203-1.856s.498.412.869,1.18c.298.607.517,1.439.346,2.469-.24,1.447.531,4.141,1.148,5.96.374,1.104.687,1.886.687,1.886s.179.908-3.065,1.315h.002Z" fill="#1a2d4c"/><path d="M602.728,428.091c-.901.636-2.802,1.89-4.064,2.054-1.701.225-4.888-4.135-4.888-4.135l.035-.008c.144,0,.837.217,3.842,2.762c1.554,1.313,4.203-1.856,4.203-1.856s.498.412.869,1.18l.003.003Z" fill="#466aa5"/><path d="M601.843,439.721h-3.774c-1.264-.201-2.196-.566-3.495-.737-1.97-.259-2.876.549-3.055.737-.023.023-.034.037-.034.037h-16.031c-.403-.579-.016-1.915.363-2.9.488-.433.625,1.885.893,2.255.269.37,13.079.135,13.816-.404.74-.539,2.958-1.484,6.053-.742c2.691.644,6.66-1.009,7.642-1.447.374,1.104.688,1.885.688,1.885s.179.909-3.066,1.316Z" fill="#3b6096"/><path d="M621.98,439.721h-3.774c-1.264-.201-2.196-.565-3.495-.737-1.97-.259-2.876.549-3.055.737-.023.023-.034.037-.034.037h-16.031c-.403-.579-.016-1.915.364-2.9.255-.668.811-1.175,1.501-1.376c1.698-.493,5.051-.932,8.119-3.718c1.728-1.563,8.338-5.751,8.338-5.751l.035-.008c.144,0,.837.216,3.842,2.762c1.554,1.312,4.203-1.856,4.203-1.856s.498.412.869,1.18c.298.607.517,1.439.345,2.469-.239,1.447.532,4.141,1.149,5.96.374,1.104.687,1.886.687,1.886s.179.908-3.065,1.315h.002Z" fill="#233862"/><path d="M622.865,428.091c-.901.636-2.802,1.89-4.064,2.054-1.704.225-4.888-4.135-4.888-4.135l.035-.008c.144,0,.837.217,3.842,2.762c1.554,1.313,4.203-1.856,4.203-1.856s.498.412.869,1.18l.003.003Z" fill="#466aa5"/><path d="M621.98,439.721h-3.774c-1.264-.201-2.196-.566-3.495-.737-1.97-.259-2.876.549-3.055.737-.023.023-.034.037-.034.037h-16.031c-.403-.579-.016-1.915.364-2.9.487-.433.624,1.885.892,2.255.269.37,13.076.135,13.816-.404s2.958-1.484,6.052-.742c2.692.644,6.661-1.009,7.641-1.447.374,1.104.687,1.885.687,1.885s.179.909-3.065,1.316h.002Z" fill="#466aa5"/><path d="M629.836,277.542c-4.09-6.462-6.486-14.281-9.689-23.235-8.249-23.069-7-35.679-4.996-36.141c2.002-.462,5.773,16.085,5.773,16.085c2.61,17.117,8.525,35.493,8.915,43.291h-.003Z" fill="#5a68af"/><path d="M611.809,211.739l6.6,24.059c0,0,13.75.951,18.301-3.866l-8.317-21.421-16.584,1.225v.003Z" fill="#808fff"/><path d="M484.335,79.1259v338.0031c0,11.104-8.975,20.106-20.047,20.106h-176.217c-11.075,0-20.053-8.999-20.053-20.106v-338.0031c0-11.1015,8.976-20.101,20.053-20.101h176.217c11.072,0,20.047,8.9995,20.047,20.101Z" fill="#add8fd"/><path d="M467.514,224.857c0,18.248-5.32,35.246-14.493,49.521-2.997,4.664-6.408,9.039-10.176,13.069-3.974,4.257-8.349,8.131-13.066,11.561-.432.317-.869.629-1.309.932-14.809,10.391-32.839,16.486-52.28,16.486-13.448,0-26.216-2.915-37.711-8.144-1.423-.649-2.824-1.333-4.209-2.054-3.216-1.664-6.318-3.518-9.291-5.543-3.411-2.319-6.656-4.864-9.713-7.616-18.66-16.76-30.398-41.11-30.398-68.206c0-50.57,40.885-91.564,91.322-91.564s91.321,40.994,91.321,91.564l.003-.006Z" fill="#f9ddbf"/><path d="M453.021,274.378c-2.997,4.664-6.407,9.039-10.176,13.069-3.974,4.257-8.349,8.131-13.066,11.561-.432.317-.869.628-1.309.932-10.856-2.123-24.026-16-35.198-21.844-1.994-1.04-3.922-1.824-5.763-2.244-6.478-1.474-17.803,3.676-29.267,9.007-6.84,3.179-13.735,6.422-19.684,8.363-.053.019-.103.037-.156.053-5.362,1.735-9.95,2.398-13.031.985-.606-.275-1.153-.636-1.635-1.083-2.028-1.875-4.059-4.016-5.768-6.403-6.934-9.668-8.646-23.397,16.049-39.907c7.951-5.313-28.037-3.551-13.049-41.659c10.334-26.267,29.676-54.377,55.638-53.63c0,0,10.903,0,22.188,7.225c8.871,5.675,21.538,31.501,28.146,48.586c6.608,17.088-6.307,27.918,4.114,37.104c10.869,9.581,19.931,20.046,21.965,29.883l.002.002Z" fill="#233862"/><path d="M349.664,171.785c0,0,27.474-27.746,44.898-2.369c0,0,10.761-3.137,15.462,19.05c4.799,22.639-2.536,36.476-10.297,32.224-4.978-2.728-8.747,6.01-8.747,6.01l-41.316-54.913v-.002Z" fill="#233862"/><path d="M429.779,299.008c-.432.317-.869.629-1.309.932-14.809,10.391-32.838,16.486-52.28,16.486-13.447,0-26.215-2.915-37.711-8.144-1.422-.649-2.823-1.333-4.209-2.054c1.135-4.318,2.56-8.559,4.14-12.625.05-.13.098-.254.148-.378c7.485-19.116,18.296-34.171,18.296-34.171s.018-.002.055-.002c.016-.003.029-.003.053-.008.029-.003.06-.008.097-.011h.011c.029-.002.068-.008.108-.01.05-.008.097-.011.155-.016.15-.011.34-.029.556-.056.068-.008.131-.015.2-.018.061-.003.116-.011.174-.016.06-.008.113-.011.168-.016.042-.002.082-.008.129-.01.05-.003.095-.008.135-.011.395-.037.845-.079,1.345-.124c3.469-.584,1.976-7.36,1.957-14.257-.002-1.553-.029-3.121-.068-4.65-.008-.254-.016-.505-.024-.758-.003-.23-.01-.457-.018-.679-.008-.201-.011-.396-.019-.589c0-.076-.002-.15-.008-.222-.015-.491-.034-.969-.052-1.439-.016-.393-.029-.774-.045-1.143-.079-1.78-.161-3.364-.235-4.619-.007-.142-.015-.282-.023-.417-.003-.016-.003-.026-.003-.037-.002-.087-.008-.169-.016-.254-.01-.203-.026-.396-.037-.573-.007-.129-.015-.245-.023-.359-.008-.15-.016-.293-.027-.422c0-.021,0-.042-.002-.061-.011-.201-.024-.364-.029-.496-.003-.045-.008-.088-.011-.124-.01-.148-.015-.222-.015-.222l26.265-5.216l1.583-.314l1.654-.327v.018c-.008,1.735.023,3.412.079,5.031.634,18.379,5.054,29.031,8.435,29.924c1.272.65,4.119,1.014,6.866,1.339c2.889.335,5.67.626,6.426,1.143c8.004,5.445,14.472,21.06,17.127,39.98l.002-.005Z" fill="#ffb27d"/><path d="M361.344,227.43c0,0,.635,8.785.653,17.064c15.581-.441,23.819-14.693,27.193-22.594l-27.846,5.53Z" fill="#e8945b"/><path d="M392.066,218.863c0,0,8.164-12.937,10.126-23.999c1.398-7.898-2.613-37.17-31.952-32.956c0,0-8.519.843-16.531,6.267-6.371,4.315-15.562,13.626-5.283,39.172l2.671,8.629l40.971,2.887h-.002Z" fill="#233862"/><path d="M356.143,235.267c0,0,36.865.61,36.892-22.417.026-23.027,4.801-38.454-18.736-39.817-23.537-1.362-28.12,7.418-29.992,15.103-1.873,7.684,2.249,46.378,11.838,47.131h-.002Z" fill="#ffb27d"/><path d="M357.507,172.471c0,0,10.095,27.015,25.586,31.007c15.491,3.996,22.209-.166,22.209-.166s-11.883-9.464-14.348-25.987c0,0-25.833-17.711-33.447-4.854Z" fill="#233862"/><path d="M360.009,174.663c0,0-5.078,3.037-9.334,9.544-3.363,5.138-6.716,9.699-6.215,19.874c0,0-7.606-18.361.943-28.75c9.062-11.014,14.608-.67,14.608-.67l-.002.002Z" fill="#233862"/><path d="M434.127,268.062c-6.584-8.804-27.895-10.188-27.895-10.188s0,.003-.003.011c-.158.422-4.611,12.289-12.955,20.211-1.272,1.207-2.633,2.324-4.079,3.293-11.865,7.93-25.012,10.74-30.951,3.473-1.614-1.975-2.697-4.698-3.076-8.265-.569-5.374,2.865-15.895,3.877-17.712.016-.023-.129-.018-.345-.008-.042.003-.087.008-.135.011-.044.003-.086.008-.129.011-.055.002-.108.008-.168.015-.055.003-.113.011-.174.016-.068.003-.132.011-.2.019-.195.016-.39.037-.556.055-.055.003-.105.008-.155.016-.042.003-.079.008-.108.011h-.011c-.037.002-.068.008-.097.01-.024.003-.037.003-.053.008-.037,0-.055.003-.055.003-5.483.723-16.487,1.922-20.342,4.397h-.003c-.221.116-9.968,5.218-18.541,23.325-.916,1.941-1.825,4.035-2.705,6.29c3.058,2.752,6.303,5.297,9.713,7.616c2.974,2.025,6.079,3.879,9.292,5.542c1.382.721,2.786,1.408,4.208,2.055c11.496,5.229,24.264,8.144,37.711,8.144c19.442,0,37.472-6.095,52.281-16.486.44-.301.877-.615,1.309-.932c4.717-3.43,9.089-7.304,13.065-11.561-2.56-8.184-5.425-14.981-8.717-19.385l-.003.005Z" fill="#808fff"/><g opacity="0.5"><path d="M347.581,189.52c0-1.123.908-2.034,2.027-2.034c1.12,0,2.028.911,2.028,2.034c0,1.122-.908,2.033-2.028,2.033-1.119,0-2.027-.911-2.027-2.033Z" fill="#fff"/><path d="M347.581,216.325c0-1.122.908-2.033,2.027-2.033c1.12,0,2.028.911,2.028,2.033c0,1.123-.908,2.034-2.028,2.034-1.119,0-2.027-.911-2.027-2.034Z" fill="#fff"/><path d="M347.581,203.41c0-1.123.908-2.034,2.027-2.034c1.12,0,2.028.911,2.028,2.034c0,1.122-.908,2.033-2.028,2.033-1.119,0-2.027-.911-2.027-2.033Z" fill="#fff"/><path d="M332.59,203.41c0-1.123.908-2.034,2.028-2.034c1.119,0,2.028.911,2.028,2.034c0,1.122-.909,2.033-2.028,2.033-1.12,0-2.028-.911-2.028-2.033Z" fill="#fff"/><path d="M364.109,189.52c0-1.123.909-2.034,2.028-2.034c1.12,0,2.028.911,2.028,2.034c0,1.122-.908,2.033-2.028,2.033-1.119,0-2.028-.911-2.028-2.033Z" fill="#fff"/><path d="M364.109,203.41c0-1.123.909-2.034,2.028-2.034c1.12,0,2.028.911,2.028,2.034c0,1.122-.908,2.033-2.028,2.033-1.119,0-2.028-.911-2.028-2.033Z" fill="#fff"/><path d="M364.109,216.325c0-1.122.909-2.033,2.028-2.033c1.12,0,2.028.911,2.028,2.033c0,1.123-.908,2.034-2.028,2.034-1.119,0-2.028-.911-2.028-2.034Z" fill="#fff"/><path d="M364.109,230.015c0-1.123.909-2.034,2.028-2.034c1.12,0,2.028.911,2.028,2.034c0,1.122-.908,2.033-2.028,2.033-1.119,0-2.028-.911-2.028-2.033Z" fill="#fff"/><path d="M381.281,203.41c0-1.123.908-2.034,2.028-2.034c1.119,0,2.028.911,2.028,2.034c0,1.122-.909,2.033-2.028,2.033-1.12,0-2.028-.911-2.028-2.033Z" fill="#fff"/><path d="M393.511,203.41c0-1.123.909-2.034,2.028-2.034s2.028.911,2.028,2.034c0,1.122-.909,2.033-2.028,2.033s-2.028-.911-2.028-2.033Z" fill="#fff"/><path d="M381.281,216.325c0-1.122.908-2.033,2.028-2.033c1.119,0,2.028.911,2.028,2.033c0,1.123-.909,2.034-2.028,2.034-1.12,0-2.028-.911-2.028-2.034Z" fill="#fff"/><path d="M364.109,175.63c0-1.123.909-2.034,2.028-2.034c1.12,0,2.028.911,2.028,2.034c0,1.122-.908,2.033-2.028,2.033-1.119,0-2.028-.911-2.028-2.033Z" fill="#fff"/><path d="M380.635,189.52c0-1.123.909-2.034,2.028-2.034c1.12,0,2.028.911,2.028,2.034c0,1.122-.908,2.033-2.028,2.033-1.119,0-2.028-.911-2.028-2.033Z" fill="#fff"/><path d="M349.345,216.864v-27.345h.524v26.267l16.002-12.506v-27.651h.527v27.91l-17.053,13.325Z" fill="#fff"/><path d="M366.132,230.353l-17.256-14.292h16.995v-12.387h-16.987l17.248-14.495l17.44,14.104v12.382l11.606-12.258-12.696-13.697-16.347-13.737-16.361,13.747-14.766,13.684l13.9,12.303-.348.396-14.335-12.688l15.204-14.088l16.706-14.041l16.721,14.054L395.9,203.412l-12.328,13.019v.158h-.171l-17.269,13.764Zm-15.794-13.764l15.799,13.087l16.418-13.087h-32.217Zm16.06-.528h16.647v-12.527l-16.908-13.677-15.81,13.286h16.068v12.915l.003.003Z" fill="#fff"/><path d="M366.398,230.015h-.527v-13.822l16.15-12.142.316.423-15.939,11.983v13.558Z" fill="#fff"/><path d="M348.173,203.146h-12.283v.528h12.283v-.528Z" fill="#fff"/><path d="M382.179,203.146h-14.016v.528h14.016v-.528Z" fill="#fff"/><path d="M383.562,202.572l-1.138-12.788h-31.952v-.529h32.431l1.183,13.27-.524.047Z" fill="#fff"/><path d="M383.15,216.536l-17.437-13.113l16.782-14.104.337.404-16.273,13.676l16.908,12.715-.317.422Z" fill="#fff"/><path d="M349.757,189.281l-.325.415l16.529,13.028.325-.416-16.529-13.027Z" fill="#fff"/><path d="M396.203,203.146h-12.894v.528h12.894v-.528Z" fill="#fff"/></g><path d="M316.438,179.517h-4.438v-13.61h14.785v4.447h-10.347v9.163Z" fill="#fff"/><path d="M437.443,180.124h-4.437v-10.378h-9.137v-4.447h13.574v14.825Z" fill="#fff"/><path d="M437.443,266.747h-14.785v-4.45h10.347v-9.16h4.438v13.61Z" fill="#fff"/><path d="M325.574,267.352h-13.574v-14.823h4.438v10.376h9.136v4.447Z" fill="#fff"/><path d="M453.321,406.154v29.98c0,.367-.008.737-.023,1.099h-153.1c-.015-.365-.023-.732-.023-1.099v-29.98c0-13.673,8.804-24.864,19.563-24.864h114.018c10.758,0,19.563,11.188,19.563,24.864h.002Z" fill="#808fff"/><path d="M464.285,439.757h-176.22c-12.444,0-22.567-10.151-22.567-22.628v-338.0033c0-12.4773,10.123-22.6281,22.567-22.6281h176.22c12.444,0,22.568,10.1508,22.568,22.6281v338.0033c0,12.477-10.124,22.628-22.568,22.628ZM288.068,61.5439c-9.668,0-17.535,7.8878-17.535,17.5818v338.0033c0,9.694,7.867,17.582,17.535,17.582h176.22c9.668,0,17.534-7.888,17.534-17.582v-338.0033c0-9.694-7.866-17.5818-17.534-17.5818h-176.22Z" fill="#2b478b"/><path d="M375.858,416.923l-9.855-8.846l2.768-3.103l6.365,5.714l8.81-12.635l3.403,2.384-11.491,16.486Z" fill="#fff"/><path d="M376.677,426.292c-10.34,0-18.754-8.434-18.754-18.804s8.412-18.804,18.754-18.804s18.754,8.434,18.754,18.804-8.412,18.804-18.754,18.804Zm0-36.853c-9.926,0-18.001,8.096-18.001,18.049s8.075,18.049,18.001,18.049s18.001-8.096,18.001-18.049-8.075-18.049-18.001-18.049Z" fill="#fff"/><path d="M448.37,337.298h-141.964v1.273h141.964v-1.273Z" fill="#ebf3fa"/><path d="M301.76,337.938c0-2.575,2.081-4.661,4.649-4.661c2.567,0,4.648,2.086,4.648,4.661c0,2.574-2.081,4.661-4.648,4.661-2.568,0-4.649-2.087-4.649-4.661Z" fill="#808fff"/><path d="M371.157,337.938c0-3.452,2.791-6.251,6.234-6.251c3.442,0,6.233,2.799,6.233,6.251c0,3.451-2.791,6.25-6.233,6.25-3.443,0-6.234-2.799-6.234-6.25Z" fill="#808fff"/><path d="M443.724,337.938c0-2.575,2.081-4.661,4.649-4.661c2.567,0,4.648,2.086,4.648,4.661c0,2.574-2.081,4.661-4.648,4.661-2.568,0-4.649-2.087-4.649-4.661Z" fill="#ebf3fa"/><path d="M377.291,337.298h-70.885v1.273h70.885v-1.273Z" fill="#abb9ff"/><path d="M751.268,439.757h-750.18294C0.485799,439.757,0,440.244,0,440.845v1.067c0,.601.485799,1.088,1.08506,1.088h750.18294c.599,0,1.085-.487,1.085-1.088v-1.067c0-.601-.486-1.088-1.085-1.088Z" fill="#2e3552"/><path d="M285.674,111.398v-.637h14.235l8.657-16.488h.192c6.753,0,16.969-.066,17.998-.243l17.646-17.6926h25.809v.6364h-25.546L327.228,94.4552c-.148.2931-1.241.3512-9.381.4172-3.996.0317-7.991.0344-8.899.0344l-8.655,16.4882h-14.616l-.003.003Z" fill="#ebf3fa"/><path d="M330.064,97.0617v-4.41l-3.808-2.2049-3.808,2.2049v4.41l3.808,2.205l3.808-2.205Z" fill="#ebf3fa"/><path d="M348.531,79.5114v-4.4099l-3.808-2.205-3.811,2.205v4.4099l3.811,2.205l3.808-2.205Z" fill="#ebf3fa"/><path d="M358.194,108.873v-4.41l-3.808-2.205-3.808,2.205v4.41l3.808,2.205l3.808-2.205Z" fill="#ebf3fa"/><path d="M304.483,113.259v-4.407l-3.808-2.205-3.808,2.205v4.407l3.808,2.205l3.808-2.205Z" fill="#ebf3fa"/><path d="M285.419,112.245v-2.379l-2.055-1.188-2.051,1.188v2.379l2.051,1.189l2.055-1.189Z" fill="#ebf3fa"/><path d="M372.26,78.1963v-2.3766l-2.054-1.1884-2.051,1.1884v2.3766l2.051,1.1883l2.054-1.1883Z" fill="#ebf3fa"/><path d="M326.717,94.5371l.426-.4726l13.951,12.5515h10.648v.636h-10.893l-.09-.082-14.042-12.6329Z" fill="#ebf3fa"/><path d="M413.814,109.029h7.103l3.55,6.166-3.55,6.166h-7.103l-3.55-6.166l3.55-6.166Z" fill="#ebf3fa"/><path d="M375.584,91.5923h3.547l1.773,3.079-1.773,3.0791h-3.547l-1.772-3.0791l1.772-3.079Z" fill="#ebf3fa"/><path d="M392.331,112.311h3.548l1.772,3.076-1.772,3.079h-3.548l-1.772-3.079l1.772-3.076Z" fill="#ebf3fa"/><path d="M447.633,129.14h3.547l1.773,3.079-1.773,3.079h-3.547l-1.773-3.079l1.773-3.079Z" fill="#ebf3fa"/><path d="M460.893,100.455h3.545l1.772,3.079-1.772,3.079h-3.545l-1.772-3.079l1.772-3.079Z" fill="#ebf3fa"/><path d="M413.601,109.169l.429-.28-9.552-14.7088h-25.028v.5149h24.751l9.4,14.4739Z" fill="#ebf3fa"/><path d="M447.601,129.755l.469-.203-6.347-14.614h-17.256v.513h16.921l6.213,14.304Z" fill="#ebf3fa"/><path d="M441.765,115.345l8.296-11.555h12.431v-.513h-12.695l-8.448,11.767.416.301Z" fill="#ebf3fa"/><path d="M410.264,114.938h-14.53v.513h14.53v-.513Z" fill="#ebf3fa"/></g><clipPath id="elHcmo1G9LZ140"><rect width="755" height="443" rx="0" ry="0" fill="#fff"/></clipPath></g></svg>
